<svg width="21" height="17" viewBox="0 0 21 17" fill="none" xmlns="http://www.w3.org/2000/svg">
<path d="M1.6508 0.921053C1.43675 0.921053 1.23148 1.00275 1.08013 1.14818C0.928778 1.29361 0.84375 1.49085 0.84375 1.69652C0.84375 1.90219 0.928778 2.09943 1.08013 2.24486C1.23148 2.39028 1.43675 2.47199 1.6508 2.47199H3.44244L5.56013 10.6144C5.7401 11.3045 6.38331 11.7776 7.12338 11.7776H17.1872C17.916 11.7776 18.535 11.3123 18.7263 10.6376L20.8181 3.24745H19.1282L17.1864 10.2266H7.12257L5.00569 2.08425C4.91824 1.7502 4.71666 1.45401 4.43323 1.24311C4.1498 1.03222 3.80091 0.918808 3.44244 0.921053H1.6508ZM16.1776 11.7776C14.85 11.7776 13.7565 12.8283 13.7565 14.104C13.7565 15.3796 14.85 16.4304 16.1776 16.4304C17.5052 16.4304 18.5988 15.3796 18.5988 14.104C18.5988 12.8283 17.5052 11.7776 16.1776 11.7776ZM8.91421 11.7776C7.58662 11.7776 6.49307 12.8283 6.49307 14.104C6.49307 15.3796 7.58662 16.4304 8.91421 16.4304C10.2418 16.4304 11.3353 15.3796 11.3353 14.104C11.3353 12.8283 10.2418 11.7776 8.91421 11.7776ZM11.3353 0.921053V3.24745H8.91421V4.79838H11.3353V7.12478H12.9494V4.79838H15.3706V3.24745H12.9494V0.921053H11.3353ZM8.91421 13.3285C9.36938 13.3285 9.72126 13.6666 9.72126 14.104C9.72126 14.5413 9.36938 14.8794 8.91421 14.8794C8.45904 14.8794 8.10716 14.5413 8.10716 14.104C8.10716 13.6666 8.45904 13.3285 8.91421 13.3285ZM16.1776 13.3285C16.6328 13.3285 16.9847 13.6666 16.9847 14.104C16.9847 14.5413 16.6328 14.8794 16.1776 14.8794C15.7225 14.8794 15.3706 14.5413 15.3706 14.104C15.3706 13.6666 15.7225 13.3285 16.1776 13.3285Z" fill="black"/>
</svg>
