<svg width="35" height="35" viewBox="0 0 35 35" fill="none" xmlns="http://www.w3.org/2000/svg">
<path d="M28.4375 8.83594H23.7891V8.28906C23.7891 4.81641 20.9727 2 17.5 2C14.0273 2 11.2109 4.81641 11.2109 8.28906V8.83594H6.5625C5.95752 8.83594 5.46875 9.32471 5.46875 9.92969V28.25C5.46875 28.855 5.95752 29.3438 6.5625 29.3438H28.4375C29.0425 29.3438 29.5312 28.855 29.5312 28.25V9.92969C29.5312 9.32471 29.0425 8.83594 28.4375 8.83594ZM13.6719 8.28906C13.6719 6.17334 15.3843 4.46094 17.5 4.46094C19.6157 4.46094 21.3281 6.17334 21.3281 8.28906V8.83594H13.6719V8.28906ZM27.0703 26.8828H7.92969V11.2969H11.2109V14.3047C11.2109 14.4551 11.334 14.5781 11.4844 14.5781H13.3984C13.5488 14.5781 13.6719 14.4551 13.6719 14.3047V11.2969H21.3281V14.3047C21.3281 14.4551 21.4512 14.5781 21.6016 14.5781H23.5156C23.666 14.5781 23.7891 14.4551 23.7891 14.3047V11.2969H27.0703V26.8828Z" fill="black"/>
</svg>
