<svg width="52" height="52" viewBox="0 0 52 52" fill="none" xmlns="http://www.w3.org/2000/svg">
<path fill-rule="evenodd" clip-rule="evenodd" d="M40.625 37.9167C39.6194 37.9167 38.6549 37.5172 37.9439 36.8061C37.2328 36.095 36.8333 35.1306 36.8333 34.125C36.8333 33.1194 37.2328 32.155 37.9439 31.4439C38.6549 30.7328 39.6194 30.3333 40.625 30.3333C41.6306 30.3333 42.595 30.7328 43.3061 31.4439C44.0172 32.155 44.4166 33.1194 44.4166 34.125C44.4166 35.1306 44.0172 36.095 43.3061 36.8061C42.595 37.5172 41.6306 37.9167 40.625 37.9167ZM40.625 41.1667C38.7574 41.1667 36.9663 40.4248 35.6458 39.1042C34.3252 37.7837 33.5833 35.9926 33.5833 34.125C33.5833 32.2574 34.3252 30.4664 35.6458 29.1458C36.9663 27.8252 38.7574 27.0833 40.625 27.0833C42.4925 27.0833 44.2836 27.8252 45.6042 29.1458C46.9248 30.4664 47.6666 32.2574 47.6666 34.125C47.6666 35.9926 46.9248 37.7837 45.6042 39.1042C44.2836 40.4248 42.4925 41.1667 40.625 41.1667Z" fill="white"/>
<path fill-rule="evenodd" clip-rule="evenodd" d="M31.3159 11.4617C31.2291 11.2741 31.0905 11.1153 30.9164 11.004C30.7423 10.8927 30.54 10.8335 30.3333 10.8333H24.9166V13H29.6411L39.6424 34.58C39.7685 34.8317 39.9877 35.0244 40.2534 35.1173C40.5192 35.2102 40.8107 35.196 41.0662 35.0777C41.3216 34.9594 41.521 34.7463 41.6221 34.4836C41.7231 34.2208 41.7179 33.929 41.6076 33.67L31.3159 11.4617ZM11.375 37.9167C10.3694 37.9167 9.40494 37.5172 8.69387 36.8061C7.98279 36.095 7.58331 35.1306 7.58331 34.125C7.58331 33.1194 7.98279 32.155 8.69387 31.4439C9.40494 30.7328 10.3694 30.3333 11.375 30.3333C12.3806 30.3333 13.345 30.7328 14.0561 31.4439C14.7672 32.155 15.1666 33.1194 15.1666 34.125C15.1666 35.1306 14.7672 36.095 14.0561 36.8061C13.345 37.5172 12.3806 37.9167 11.375 37.9167ZM11.375 41.1667C9.50741 41.1667 7.71634 40.4248 6.39577 39.1042C5.0752 37.7837 4.33331 35.9926 4.33331 34.125C4.33331 32.2574 5.0752 30.4664 6.39577 29.1458C7.71634 27.8252 9.50741 27.0833 11.375 27.0833C13.2425 27.0833 15.0336 27.8252 16.3542 29.1458C17.6748 30.4664 18.4166 32.2574 18.4166 34.125C18.4166 35.9926 17.6748 37.7837 16.3542 39.1042C15.0336 40.4248 13.2425 41.1667 11.375 41.1667Z" fill="white"/>
<path fill-rule="evenodd" clip-rule="evenodd" d="M23.2916 34.125C23.2916 34.4123 23.1775 34.6879 22.9743 34.8911C22.7712 35.0942 22.4956 35.2084 22.2083 35.2084H11.375C11.0876 35.2084 10.8121 35.0942 10.6089 34.8911C10.4058 34.6879 10.2916 34.4123 10.2916 34.125C10.2916 33.8377 10.4058 33.5622 10.6089 33.359C10.8121 33.1558 11.0876 33.0417 11.375 33.0417H22.2083C22.4956 33.0417 22.7712 33.1558 22.9743 33.359C23.1775 33.5622 23.2916 33.8377 23.2916 34.125Z" fill="white"/>
<path d="M30.3907 25.8852L31.4741 23.7185C31.6243 23.4178 31.7026 23.0862 31.7026 22.75C31.7026 22.4138 31.6243 22.0822 31.4741 21.7815L30.3907 19.6148C30.2108 19.2547 29.934 18.9518 29.5914 18.7401C29.2489 18.5285 28.8542 18.4165 28.4516 18.4167H24.8982C23.954 18.4168 23.0161 18.5712 22.1216 18.8738L18.7146 20.0254C18.5544 20.0796 18.4091 20.1704 18.2903 20.2908C18.1716 20.4111 18.0826 20.5576 18.0306 20.7185C17.9786 20.8794 17.965 21.0502 17.9908 21.2173C18.0166 21.3844 18.0812 21.5431 18.1794 21.6808L21.7035 26.6283C21.8037 26.7691 21.9361 26.8838 22.0897 26.963C22.2433 27.0421 22.4136 27.0834 22.5864 27.0833H28.4526C28.8551 27.0833 29.2496 26.9712 29.5919 26.7596C29.9342 26.548 30.2108 26.2452 30.3907 25.8852ZM5.41665 20.5833H14.1873C14.3518 20.5832 14.5141 20.6204 14.662 20.6923C14.8099 20.7642 14.9395 20.8688 15.041 20.9983L18.1631 24.9849C18.2292 25.0689 18.2689 25.1705 18.2774 25.277C18.2858 25.3835 18.2626 25.4901 18.2106 25.5834C18.1586 25.6768 18.0802 25.7526 17.9852 25.8015C17.8902 25.8504 17.7829 25.8701 17.6767 25.8581L5.29748 24.4823C5.0324 24.4529 4.78746 24.3268 4.60956 24.1281C4.43165 23.9294 4.33329 23.6721 4.33331 23.4054V21.6667C4.33331 21.3793 4.44745 21.1038 4.65061 20.9006C4.85378 20.6975 5.12933 20.5833 5.41665 20.5833ZM30.3333 29.25H23.8333C23.2587 29.25 22.7076 29.4783 22.3012 29.8846C21.8949 30.2909 21.6666 30.842 21.6666 31.4167V33.5833C21.6666 34.158 21.8949 34.7091 22.3012 35.1154C22.7076 35.5217 23.2587 35.75 23.8333 35.75H28.1666C28.7413 35.75 29.2924 35.5217 29.6987 35.1154C30.105 34.7091 30.3333 34.158 30.3333 33.5833V29.25ZM36.0847 16.25H40.3422C40.4294 16.2499 40.5152 16.2708 40.5926 16.311C40.6699 16.3512 40.7364 16.4094 40.7864 16.4808L43.8197 20.8141C43.8767 20.8953 43.9102 20.9906 43.9167 21.0895C43.9232 21.1885 43.9024 21.2873 43.8566 21.3753C43.8108 21.4632 43.7417 21.5369 43.6568 21.5883C43.572 21.6397 43.4747 21.6668 43.3756 21.6667H38.2514C38.1509 21.6667 38.0524 21.6387 37.9668 21.5859C37.8813 21.5331 37.8122 21.4575 37.7671 21.3677L35.6005 17.0343C35.5591 16.9518 35.5395 16.86 35.5436 16.7677C35.5477 16.6754 35.5753 16.5857 35.6238 16.5071C35.6724 16.4285 35.7402 16.3636 35.8209 16.3186C35.9015 16.2736 35.9924 16.25 36.0847 16.25Z" fill="white"/>
</svg>
