<svg width="48" height="48" viewBox="0 0 48 48" fill="none" xmlns="http://www.w3.org/2000/svg">
<path d="M38 30L32 12L34 10M10 38C12.1217 38 14.1566 37.1571 15.6569 35.6569C17.1571 34.1566 18 32.1217 18 30C18 27.8783 17.1571 25.8434 15.6569 24.3431C14.1566 22.8429 12.1217 22 10 22C7.87827 22 5.84344 22.8429 4.34315 24.3431C2.84285 25.8434 2 27.8783 2 30C2 32.1217 2.84285 34.1566 4.34315 35.6569C5.84344 37.1571 7.87827 38 10 38V38Z" stroke="white" stroke-width="2" stroke-linecap="round" stroke-linejoin="round"/>
<path d="M32 18H23L14 24M11 32H24L26 27L33 18M17 21C13 18 7 18 3 21M38 39C40.1217 39 42.1566 38.1571 43.6569 36.6569C45.1571 35.1566 46 33.1217 46 31C46 28.8783 45.1571 26.8434 43.6569 25.3431C42.1566 23.8429 40.1217 23 38 23C35.8783 23 33.8434 23.8429 32.3431 25.3431C30.8429 26.8434 30 28.8783 30 31C30 33.1217 30.8429 35.1566 32.3431 36.6569C33.8434 38.1571 35.8783 39 38 39Z" stroke="white" stroke-width="2" stroke-linecap="round" stroke-linejoin="round"/>
</svg>
