<svg width="25" height="25" viewBox="0 0 25 25" fill="none" xmlns="http://www.w3.org/2000/svg">
<path d="M11.4582 4.16667C11.4582 4.74196 11.9245 5.20833 12.4998 5.20833C13.0751 5.20833 13.5415 4.74196 13.5415 4.16667C13.5415 3.59137 13.0751 3.125 12.4998 3.125C11.9245 3.125 11.4582 3.59137 11.4582 4.16667Z" stroke="black" stroke-width="2.08333"/>
<path d="M11.4582 12.5C11.4582 13.0753 11.9245 13.5417 12.4998 13.5417C13.0751 13.5417 13.5415 13.0753 13.5415 12.5C13.5415 11.9247 13.0751 11.4583 12.4998 11.4583C11.9245 11.4583 11.4582 11.9247 11.4582 12.5Z" stroke="black" stroke-width="2.08333"/>
<path d="M11.4582 20.8333C11.4582 21.4086 11.9245 21.875 12.4998 21.875C13.0751 21.875 13.5415 21.4086 13.5415 20.8333C13.5415 20.258 13.0751 19.7917 12.4998 19.7917C11.9245 19.7917 11.4582 20.258 11.4582 20.8333Z" stroke="black" stroke-width="2.08333"/>
</svg>
