<svg width="15" height="15" viewBox="0 0 15 15" fill="none" xmlns="http://www.w3.org/2000/svg">
<g clip-path="url(#clip0_8_270)">
<path d="M6.59615 3.90002L4.48178 1.45939C4.23803 1.17814 3.79115 1.17939 3.50803 1.46314L1.76928 3.20502C1.25178 3.72314 1.10365 4.49252 1.40303 5.10939C3.19154 8.8125 6.17805 11.8032 9.87865 13.5969C10.4949 13.8963 11.2637 13.7481 11.7812 13.23L13.5362 11.4719C13.8205 11.1875 13.8212 10.7381 13.5374 10.4944L11.0874 8.39127C10.8312 8.17127 10.433 8.20002 10.1762 8.45752L9.32365 9.31127C9.28001 9.35701 9.22256 9.38716 9.16012 9.3971C9.09768 9.40703 9.03371 9.3962 8.97803 9.36627C7.58455 8.56383 6.42865 7.40641 5.62803 6.01189C5.59804 5.95611 5.58719 5.89204 5.59712 5.82949C5.60706 5.76695 5.63723 5.70939 5.68303 5.66564L6.53303 4.81502C6.79053 4.55627 6.81865 4.15627 6.59615 3.89939V3.90002Z" stroke="white" stroke-width="1.25" stroke-linecap="round" stroke-linejoin="round"/>
</g>
<defs>
<clipPath id="clip0_8_270">
<rect width="15" height="15" fill="white"/>
</clipPath>
</defs>
</svg>
