<svg width="35" height="35" viewBox="0 0 35 35" fill="none" xmlns="http://www.w3.org/2000/svg">
<path d="M29.0192 24.5739C28.3921 23.1705 27.482 21.8958 26.3397 20.8207C25.2009 19.7426 23.8518 18.8829 22.367 18.2893C22.3537 18.2831 22.3404 18.2799 22.3271 18.2736C24.3982 16.8603 25.7446 14.5582 25.7446 11.9608C25.7446 7.65806 22.0545 4.17188 17.5 4.17188C12.9455 4.17188 9.25537 7.65806 9.25537 11.9608C9.25537 14.5582 10.6018 16.8603 12.6729 18.2768C12.6596 18.2831 12.6463 18.2862 12.633 18.2925C11.1437 18.8861 9.80723 19.7372 8.6603 20.8239C7.51905 21.8998 6.60913 23.1743 5.98079 24.577C5.36352 25.9503 5.03061 27.4226 5.00008 28.9143C4.9992 28.9479 5.00542 28.9812 5.01839 29.0124C5.03135 29.0436 5.0508 29.0721 5.07559 29.0961C5.10037 29.1201 5.12999 29.1392 5.1627 29.1522C5.19541 29.1652 5.23055 29.1719 5.26604 29.1719H7.26071C7.40698 29.1719 7.52334 29.062 7.52666 28.9269C7.59315 26.5023 8.62373 24.2316 10.4455 22.5104C12.3305 20.7297 14.8338 19.7498 17.5 19.7498C20.1662 19.7498 22.6695 20.7297 24.5545 22.5104C26.3763 24.2316 27.4068 26.5023 27.4733 28.9269C27.4767 29.0651 27.593 29.1719 27.7393 29.1719H29.734C29.7695 29.1719 29.8046 29.1652 29.8373 29.1522C29.87 29.1392 29.8996 29.1201 29.9244 29.0961C29.9492 29.0721 29.9686 29.0436 29.9816 29.0124C29.9946 28.9812 30.0008 28.9479 29.9999 28.9143C29.9667 27.4131 29.6376 25.9527 29.0192 24.5739ZM17.5 17.3628C15.9741 17.3628 14.5379 16.8006 13.4575 15.7799C12.377 14.7592 11.782 13.4024 11.782 11.9608C11.782 10.5192 12.377 9.16245 13.4575 8.14172C14.5379 7.121 15.9741 6.55881 17.5 6.55881C19.0259 6.55881 20.4621 7.121 21.5425 8.14172C22.623 9.16245 23.218 10.5192 23.218 11.9608C23.218 13.4024 22.623 14.7592 21.5425 15.7799C20.4621 16.8006 19.0259 17.3628 17.5 17.3628Z" fill="black"/>
</svg>
