<svg width="185" height="41" viewBox="0 0 185 41" fill="none" xmlns="http://www.w3.org/2000/svg">
<path d="M42.8398 14.0625H53.5391V7.19531H56.5859V24H53.5391V17.1328H42.8398V24H39.793V7.19531H42.8398V14.0625ZM77.6084 24H74.5616V19.875H63.8506V24H60.8037V15.5977C60.8037 14.3711 61.0147 13.2422 61.4366 12.2109C61.8584 11.1797 62.4444 10.293 63.1944 9.55078C63.9444 8.80859 64.8311 8.23047 65.8545 7.81641C66.878 7.40234 67.9952 7.19531 69.2061 7.19531H76.0733C76.2842 7.19531 76.4834 7.23437 76.6709 7.3125C76.8584 7.39063 77.0225 7.5 77.1631 7.64062C77.3037 7.78125 77.4131 7.94531 77.4912 8.13281C77.5694 8.32031 77.6084 8.51953 77.6084 8.73047V24ZM63.8506 16.8281H74.5616V10.2422H69.2061C69.1123 10.2422 68.9131 10.2578 68.6084 10.2891C68.3116 10.3125 67.9639 10.3789 67.5655 10.4883C67.1748 10.5977 66.7608 10.7656 66.3233 10.9922C65.8858 11.2188 65.4834 11.5312 65.1162 11.9297C64.7491 12.3281 64.4444 12.8281 64.2022 13.4297C63.9678 14.0234 63.8506 14.7461 63.8506 15.5977V16.8281ZM92.795 14.3789H85.9395C85.5255 14.3789 85.213 14.4844 85.002 14.6953C84.7911 14.8984 84.6856 15.1992 84.6856 15.5977V24H81.6387V15.5977C81.6387 15.0742 81.7052 14.6055 81.838 14.1914C81.9708 13.7773 82.1466 13.4141 82.3653 13.1016C82.5919 12.7812 82.8497 12.5117 83.1387 12.293C83.4278 12.0664 83.7286 11.8828 84.0411 11.7422C84.3614 11.6016 84.6817 11.5 85.002 11.4375C85.3302 11.3672 85.6348 11.332 85.9161 11.332H92.795V14.3789ZM101.337 24H99.9777C99.5402 24 99.0714 23.9258 98.5714 23.7773C98.0792 23.6289 97.6183 23.3867 97.1886 23.0508C96.7589 22.707 96.4034 22.2656 96.1222 21.7266C95.8409 21.1797 95.7003 20.5117 95.7003 19.7227V5.97656H98.7472V19.7227C98.7472 20.0977 98.8644 20.3984 99.0988 20.625C99.3331 20.8438 99.6261 20.9531 99.9777 20.9531H101.337V24ZM117.883 15.5273C117.883 15.9492 117.809 16.4062 117.66 16.8984C117.512 17.3828 117.27 17.8359 116.934 18.2578C116.606 18.6719 116.172 19.0195 115.633 19.3008C115.102 19.582 114.453 19.7227 113.688 19.7227H108.192V16.8281H113.688C114.102 16.8281 114.422 16.7031 114.649 16.4531C114.875 16.1953 114.988 15.8789 114.988 15.5039C114.988 15.1055 114.86 14.793 114.602 14.5664C114.352 14.3398 114.047 14.2266 113.688 14.2266H108.192C107.777 14.2266 107.457 14.3555 107.231 14.6133C107.004 14.8633 106.891 15.1758 106.891 15.5508V19.8047C106.891 20.2109 107.016 20.5273 107.266 20.7539C107.524 20.9805 107.84 21.0938 108.215 21.0938H113.688V24H108.192C107.77 24 107.313 23.9258 106.82 23.7773C106.336 23.6289 105.883 23.3906 105.461 23.0625C105.047 22.7266 104.699 22.293 104.418 21.7617C104.137 21.2227 103.996 20.5703 103.996 19.8047V15.5273C103.996 15.1055 104.07 14.6523 104.219 14.168C104.367 13.6758 104.606 13.2227 104.934 12.8086C105.27 12.3867 105.703 12.0352 106.235 11.7539C106.774 11.4727 107.426 11.332 108.192 11.332H113.688C114.11 11.332 114.563 11.4062 115.047 11.5547C115.539 11.7031 115.992 11.9453 116.406 12.2812C116.828 12.6094 117.18 13.043 117.461 13.582C117.742 14.1133 117.883 14.7617 117.883 15.5273ZM134.863 25.2188C134.863 25.7422 134.796 26.2109 134.663 26.625C134.53 27.0469 134.355 27.4141 134.136 27.7266C133.917 28.0469 133.663 28.3164 133.374 28.5352C133.085 28.7617 132.78 28.9453 132.46 29.0859C132.148 29.2266 131.831 29.3281 131.511 29.3906C131.191 29.4609 130.886 29.4961 130.597 29.4961H125.101V26.4492H130.597C131.003 26.4492 131.308 26.3438 131.511 26.1328C131.714 25.9219 131.816 25.6172 131.816 25.2188V11.332H134.863V25.2188ZM130.597 24H125.101C124.663 24 124.195 23.9258 123.695 23.7773C123.202 23.6289 122.741 23.3867 122.312 23.0508C121.882 22.707 121.527 22.2656 121.245 21.7266C120.964 21.1797 120.823 20.5117 120.823 19.7227V11.332H123.87V19.7227C123.87 20.1211 123.976 20.4258 124.187 20.6367C124.398 20.8477 124.71 20.9531 125.124 20.9531H130.597V24Z" fill="black"/>
<path d="M155.838 16.9688C155.838 17.9922 155.658 18.9336 155.299 19.793C154.948 20.6523 154.459 21.3945 153.834 22.0195C153.209 22.6367 152.467 23.1211 151.608 23.4727C150.748 23.8242 149.815 24 148.807 24H140.58C140.362 24 140.158 23.9609 139.971 23.8828C139.783 23.8047 139.619 23.6992 139.479 23.5664C139.346 23.4258 139.24 23.2617 139.162 23.0742C139.084 22.8867 139.045 22.6836 139.045 22.4648V8.73047C139.045 8.51953 139.084 8.32031 139.162 8.13281C139.24 7.94531 139.346 7.78125 139.479 7.64062C139.619 7.5 139.783 7.39063 139.971 7.3125C140.158 7.23437 140.362 7.19531 140.58 7.19531H148.807C149.815 7.19531 150.748 7.37109 151.608 7.72266C152.467 8.07422 153.209 8.5625 153.834 9.1875C154.459 9.80469 154.948 10.5469 155.299 11.4141C155.658 12.2734 155.838 13.2109 155.838 14.2266V16.9688ZM152.791 14.2266C152.791 13.6328 152.694 13.0898 152.498 12.5977C152.311 12.1055 152.041 11.6875 151.69 11.3438C151.338 10.9922 150.916 10.7227 150.424 10.5352C149.94 10.3398 149.401 10.2422 148.807 10.2422H142.092V20.9531H148.807C149.401 20.9531 149.94 20.8594 150.424 20.6719C150.916 20.4766 151.338 20.207 151.69 19.8633C152.041 19.5117 152.311 19.0938 152.498 18.6094C152.694 18.1172 152.791 17.5703 152.791 16.9688V14.2266Z" fill="#545454"/>
<path d="M14.9998 14.2375C14.9998 13.425 14.5123 12.7 13.7748 12.3875L6.7998 9.4375C4.9498 11.5375 3.8998 14.0625 3.2998 16.25H12.9873C14.0998 16.25 14.9998 15.35 14.9998 14.2375Z" fill="#545454"/>
<path d="M27.45 14.0249C26.9375 8.51245 21.75 4.66245 16.225 5.02495C13.0875 5.22495 10.675 6.19995 8.8125 7.57495L14.7375 10.0874C16.4 10.7999 17.4875 12.4249 17.4875 14.2374C17.4875 16.7249 15.4625 18.7499 12.975 18.7499H2.7625C2.5 20.3874 2.5 21.4999 2.5 21.4999V22.4999C2.5 23.8749 3.625 24.9999 5 24.9999H17.5C23.3375 24.9999 28.0125 19.9874 27.45 14.0249Z" fill="#545454"/>
</svg>
